<mxfile host="app.diagrams.net" agent="Mozilla/5.0 (Windows NT 10.0; Win64; x64) AppleWebKit/537.36 (KHTML, like Gecko) Chrome/133.0.0.0 Safari/537.36" version="26.1.0">
  <diagram name="Page-1" id="0k5uEn_I-j1xhHr7RajE">
    <mxGraphModel dx="880" dy="1534" grid="1" gridSize="10" guides="1" tooltips="1" connect="1" arrows="1" fold="1" page="1" pageScale="1" pageWidth="850" pageHeight="1100" math="0" shadow="0">
      <root>
        <mxCell id="0" />
        <mxCell id="1" parent="0" />
        <mxCell id="rR2cHtrvbhDjR1xuKyu3-1" value="Activity diagram kelola data pasien" style="swimlane;childLayout=stackLayout;resizeParent=1;resizeParentMax=0;startSize=20;html=1;" vertex="1" parent="1">
          <mxGeometry x="220.00000000000045" y="-290" width="710" height="680" as="geometry" />
        </mxCell>
        <mxCell id="rR2cHtrvbhDjR1xuKyu3-2" value="Operator" style="swimlane;startSize=20;html=1;" vertex="1" parent="rR2cHtrvbhDjR1xuKyu3-1">
          <mxGeometry y="20" width="460" height="660" as="geometry" />
        </mxCell>
        <mxCell id="rR2cHtrvbhDjR1xuKyu3-3" value="" style="ellipse;html=1;shape=startState;fillColor=#000000;strokeColor=#ff0000;" vertex="1" parent="rR2cHtrvbhDjR1xuKyu3-2">
          <mxGeometry x="219.99999999999955" y="40" width="30" height="30" as="geometry" />
        </mxCell>
        <mxCell id="rR2cHtrvbhDjR1xuKyu3-4" value="" style="edgeStyle=orthogonalEdgeStyle;html=1;verticalAlign=bottom;endArrow=open;endSize=8;strokeColor=#ff0000;rounded=0;" edge="1" parent="rR2cHtrvbhDjR1xuKyu3-2" source="rR2cHtrvbhDjR1xuKyu3-3">
          <mxGeometry relative="1" as="geometry">
            <mxPoint x="234.99999999999955" y="100" as="targetPoint" />
          </mxGeometry>
        </mxCell>
        <mxCell id="rR2cHtrvbhDjR1xuKyu3-5" value="Login" style="rounded=1;whiteSpace=wrap;html=1;arcSize=40;fontColor=#000000;fillColor=#ffffc0;strokeColor=#ff0000;" vertex="1" parent="rR2cHtrvbhDjR1xuKyu3-2">
          <mxGeometry x="174.99999999999955" y="100" width="120" height="40" as="geometry" />
        </mxCell>
        <mxCell id="rR2cHtrvbhDjR1xuKyu3-6" value="Mengakses menu Pasien" style="rounded=1;whiteSpace=wrap;html=1;arcSize=40;fontColor=#000000;fillColor=#ffffc0;strokeColor=#ff0000;" vertex="1" parent="rR2cHtrvbhDjR1xuKyu3-2">
          <mxGeometry x="174.99999999999955" y="240" width="120" height="40" as="geometry" />
        </mxCell>
        <mxCell id="rR2cHtrvbhDjR1xuKyu3-7" style="edgeStyle=orthogonalEdgeStyle;rounded=0;orthogonalLoop=1;jettySize=auto;html=1;exitX=0.25;exitY=0.5;exitDx=0;exitDy=0;exitPerimeter=0;entryX=0.5;entryY=0;entryDx=0;entryDy=0;" edge="1" parent="rR2cHtrvbhDjR1xuKyu3-2" source="rR2cHtrvbhDjR1xuKyu3-9" target="rR2cHtrvbhDjR1xuKyu3-11">
          <mxGeometry relative="1" as="geometry" />
        </mxCell>
        <mxCell id="rR2cHtrvbhDjR1xuKyu3-8" style="edgeStyle=orthogonalEdgeStyle;rounded=0;orthogonalLoop=1;jettySize=auto;html=1;exitX=0.75;exitY=0.5;exitDx=0;exitDy=0;exitPerimeter=0;entryX=0.5;entryY=0;entryDx=0;entryDy=0;" edge="1" parent="rR2cHtrvbhDjR1xuKyu3-2" source="rR2cHtrvbhDjR1xuKyu3-9" target="rR2cHtrvbhDjR1xuKyu3-14">
          <mxGeometry relative="1" as="geometry" />
        </mxCell>
        <mxCell id="rR2cHtrvbhDjR1xuKyu3-9" value="" style="shape=line;html=1;strokeWidth=6;strokeColor=#ff0000;" vertex="1" parent="rR2cHtrvbhDjR1xuKyu3-2">
          <mxGeometry x="40" y="330" width="400" height="10" as="geometry" />
        </mxCell>
        <mxCell id="rR2cHtrvbhDjR1xuKyu3-10" value="" style="edgeStyle=orthogonalEdgeStyle;html=1;verticalAlign=bottom;endArrow=open;endSize=8;strokeColor=#ff0000;rounded=0;" edge="1" parent="rR2cHtrvbhDjR1xuKyu3-2" source="rR2cHtrvbhDjR1xuKyu3-6">
          <mxGeometry relative="1" as="geometry">
            <mxPoint x="234.99999999999955" y="330" as="targetPoint" />
          </mxGeometry>
        </mxCell>
        <mxCell id="rR2cHtrvbhDjR1xuKyu3-11" value="Tambah data Pasien" style="rounded=1;whiteSpace=wrap;html=1;arcSize=40;fontColor=#000000;fillColor=#ffffc0;strokeColor=#ff0000;" vertex="1" parent="rR2cHtrvbhDjR1xuKyu3-2">
          <mxGeometry x="39.999999999999545" y="390" width="120" height="40" as="geometry" />
        </mxCell>
        <mxCell id="rR2cHtrvbhDjR1xuKyu3-12" style="edgeStyle=orthogonalEdgeStyle;rounded=0;orthogonalLoop=1;jettySize=auto;html=1;exitX=0.5;exitY=1;exitDx=0;exitDy=0;" edge="1" parent="rR2cHtrvbhDjR1xuKyu3-2" source="rR2cHtrvbhDjR1xuKyu3-13" target="rR2cHtrvbhDjR1xuKyu3-16">
          <mxGeometry relative="1" as="geometry" />
        </mxCell>
        <mxCell id="rR2cHtrvbhDjR1xuKyu3-13" value="Edit data Pasien" style="rounded=1;whiteSpace=wrap;html=1;arcSize=40;fontColor=#000000;fillColor=#ffffc0;strokeColor=#ff0000;" vertex="1" parent="rR2cHtrvbhDjR1xuKyu3-2">
          <mxGeometry x="174.99999999999955" y="390" width="120" height="40" as="geometry" />
        </mxCell>
        <mxCell id="rR2cHtrvbhDjR1xuKyu3-14" value="Hapus data Pasien" style="rounded=1;whiteSpace=wrap;html=1;arcSize=40;fontColor=#000000;fillColor=#ffffc0;strokeColor=#ff0000;" vertex="1" parent="rR2cHtrvbhDjR1xuKyu3-2">
          <mxGeometry x="319.99999999999955" y="390" width="120" height="40" as="geometry" />
        </mxCell>
        <mxCell id="rR2cHtrvbhDjR1xuKyu3-15" value="" style="endArrow=classic;html=1;rounded=0;entryX=0.5;entryY=0;entryDx=0;entryDy=0;exitX=0.49;exitY=0.547;exitDx=0;exitDy=0;exitPerimeter=0;" edge="1" parent="rR2cHtrvbhDjR1xuKyu3-2" source="rR2cHtrvbhDjR1xuKyu3-9" target="rR2cHtrvbhDjR1xuKyu3-13">
          <mxGeometry width="50" height="50" relative="1" as="geometry">
            <mxPoint x="189.99999999999955" y="360" as="sourcePoint" />
            <mxPoint x="239.99999999999955" y="310" as="targetPoint" />
          </mxGeometry>
        </mxCell>
        <mxCell id="rR2cHtrvbhDjR1xuKyu3-16" value="" style="shape=line;html=1;strokeWidth=6;strokeColor=#ff0000;" vertex="1" parent="rR2cHtrvbhDjR1xuKyu3-2">
          <mxGeometry x="35" y="470" width="400" height="10" as="geometry" />
        </mxCell>
        <mxCell id="rR2cHtrvbhDjR1xuKyu3-17" style="edgeStyle=orthogonalEdgeStyle;rounded=0;orthogonalLoop=1;jettySize=auto;html=1;exitX=0.5;exitY=1;exitDx=0;exitDy=0;entryX=0.163;entryY=0;entryDx=0;entryDy=0;entryPerimeter=0;" edge="1" parent="rR2cHtrvbhDjR1xuKyu3-2" source="rR2cHtrvbhDjR1xuKyu3-11" target="rR2cHtrvbhDjR1xuKyu3-16">
          <mxGeometry relative="1" as="geometry" />
        </mxCell>
        <mxCell id="rR2cHtrvbhDjR1xuKyu3-18" style="edgeStyle=orthogonalEdgeStyle;rounded=0;orthogonalLoop=1;jettySize=auto;html=1;exitX=0.5;exitY=1;exitDx=0;exitDy=0;entryX=0.863;entryY=0.429;entryDx=0;entryDy=0;entryPerimeter=0;" edge="1" parent="rR2cHtrvbhDjR1xuKyu3-2" source="rR2cHtrvbhDjR1xuKyu3-14" target="rR2cHtrvbhDjR1xuKyu3-16">
          <mxGeometry relative="1" as="geometry" />
        </mxCell>
        <mxCell id="rR2cHtrvbhDjR1xuKyu3-19" style="edgeStyle=elbowEdgeStyle;rounded=0;orthogonalLoop=1;jettySize=auto;html=1;exitX=0.25;exitY=0.5;exitDx=0;exitDy=0;exitPerimeter=0;elbow=vertical;" edge="1" parent="rR2cHtrvbhDjR1xuKyu3-2">
          <mxGeometry relative="1" as="geometry">
            <mxPoint x="240.00000000000023" y="480" as="sourcePoint" />
            <mxPoint x="519.9999999999995" y="535" as="targetPoint" />
            <Array as="points">
              <mxPoint x="445" y="535" />
            </Array>
          </mxGeometry>
        </mxCell>
        <mxCell id="rR2cHtrvbhDjR1xuKyu3-20" value="SIstem" style="swimlane;startSize=20;html=1;" vertex="1" parent="rR2cHtrvbhDjR1xuKyu3-1">
          <mxGeometry x="460" y="20" width="250" height="660" as="geometry" />
        </mxCell>
        <mxCell id="rR2cHtrvbhDjR1xuKyu3-21" style="edgeStyle=orthogonalEdgeStyle;rounded=0;orthogonalLoop=1;jettySize=auto;html=1;exitX=0.5;exitY=1;exitDx=0;exitDy=0;" edge="1" parent="rR2cHtrvbhDjR1xuKyu3-20" source="rR2cHtrvbhDjR1xuKyu3-22">
          <mxGeometry relative="1" as="geometry">
            <mxPoint x="124.99999999999955" y="240" as="targetPoint" />
          </mxGeometry>
        </mxCell>
        <mxCell id="rR2cHtrvbhDjR1xuKyu3-22" value="cek data user" style="rhombus;whiteSpace=wrap;html=1;fontColor=#000000;fillColor=#ffffc0;strokeColor=#ff0000;" vertex="1" parent="rR2cHtrvbhDjR1xuKyu3-20">
          <mxGeometry x="72.5" y="140" width="105" height="50" as="geometry" />
        </mxCell>
        <mxCell id="rR2cHtrvbhDjR1xuKyu3-23" value="ya" style="text;strokeColor=none;fillColor=none;spacingLeft=4;spacingRight=4;overflow=hidden;rotatable=0;points=[[0,0.5],[1,0.5]];portConstraint=eastwest;fontSize=12;whiteSpace=wrap;html=1;" vertex="1" parent="rR2cHtrvbhDjR1xuKyu3-20">
          <mxGeometry x="129.99999999999955" y="190" width="40" height="30" as="geometry" />
        </mxCell>
        <mxCell id="rR2cHtrvbhDjR1xuKyu3-24" value="tidak" style="text;strokeColor=none;fillColor=none;spacingLeft=4;spacingRight=4;overflow=hidden;rotatable=0;points=[[0,0.5],[1,0.5]];portConstraint=eastwest;fontSize=12;whiteSpace=wrap;html=1;" vertex="1" parent="rR2cHtrvbhDjR1xuKyu3-20">
          <mxGeometry x="19.999999999999545" y="140" width="40" height="30" as="geometry" />
        </mxCell>
        <mxCell id="rR2cHtrvbhDjR1xuKyu3-25" value="Menampilkan Halaman dashboard" style="rounded=1;whiteSpace=wrap;html=1;arcSize=40;fontColor=#000000;fillColor=#ffffc0;strokeColor=#ff0000;" vertex="1" parent="rR2cHtrvbhDjR1xuKyu3-20">
          <mxGeometry x="64.99999999999955" y="240" width="120" height="40" as="geometry" />
        </mxCell>
        <mxCell id="rR2cHtrvbhDjR1xuKyu3-26" style="edgeStyle=orthogonalEdgeStyle;rounded=0;orthogonalLoop=1;jettySize=auto;html=1;exitX=0.5;exitY=1;exitDx=0;exitDy=0;entryX=0.5;entryY=0;entryDx=0;entryDy=0;" edge="1" parent="rR2cHtrvbhDjR1xuKyu3-20" source="rR2cHtrvbhDjR1xuKyu3-27" target="rR2cHtrvbhDjR1xuKyu3-28">
          <mxGeometry relative="1" as="geometry" />
        </mxCell>
        <mxCell id="rR2cHtrvbhDjR1xuKyu3-27" value="Simpan data&amp;nbsp;" style="rounded=1;whiteSpace=wrap;html=1;arcSize=40;fontColor=#000000;fillColor=#ffffc0;strokeColor=#ff0000;" vertex="1" parent="rR2cHtrvbhDjR1xuKyu3-20">
          <mxGeometry x="59.999999999999545" y="510" width="120" height="40" as="geometry" />
        </mxCell>
        <mxCell id="rR2cHtrvbhDjR1xuKyu3-28" value="" style="ellipse;html=1;shape=endState;fillColor=#000000;strokeColor=#ff0000;" vertex="1" parent="rR2cHtrvbhDjR1xuKyu3-20">
          <mxGeometry x="104.99999999999955" y="590" width="30" height="30" as="geometry" />
        </mxCell>
        <mxCell id="rR2cHtrvbhDjR1xuKyu3-29" style="edgeStyle=orthogonalEdgeStyle;rounded=0;orthogonalLoop=1;jettySize=auto;html=1;exitX=1;exitY=0.5;exitDx=0;exitDy=0;entryX=0.5;entryY=0;entryDx=0;entryDy=0;" edge="1" parent="rR2cHtrvbhDjR1xuKyu3-1" source="rR2cHtrvbhDjR1xuKyu3-5" target="rR2cHtrvbhDjR1xuKyu3-22">
          <mxGeometry relative="1" as="geometry" />
        </mxCell>
        <mxCell id="rR2cHtrvbhDjR1xuKyu3-30" style="edgeStyle=orthogonalEdgeStyle;rounded=0;orthogonalLoop=1;jettySize=auto;html=1;exitX=0;exitY=0.5;exitDx=0;exitDy=0;entryX=0.5;entryY=1;entryDx=0;entryDy=0;" edge="1" parent="rR2cHtrvbhDjR1xuKyu3-1" source="rR2cHtrvbhDjR1xuKyu3-22" target="rR2cHtrvbhDjR1xuKyu3-5">
          <mxGeometry relative="1" as="geometry" />
        </mxCell>
        <mxCell id="rR2cHtrvbhDjR1xuKyu3-31" style="edgeStyle=orthogonalEdgeStyle;rounded=0;orthogonalLoop=1;jettySize=auto;html=1;exitX=0;exitY=0.5;exitDx=0;exitDy=0;entryX=1;entryY=0.5;entryDx=0;entryDy=0;" edge="1" parent="rR2cHtrvbhDjR1xuKyu3-1" source="rR2cHtrvbhDjR1xuKyu3-25" target="rR2cHtrvbhDjR1xuKyu3-6">
          <mxGeometry relative="1" as="geometry" />
        </mxCell>
      </root>
    </mxGraphModel>
  </diagram>
</mxfile>
